<svg width="1024" height="1024" version="1.1" xmlns="http://www.w3.org/2000/svg" desc="Created with imagetracer.js version 1.2.6" ><path fill="rgb(0,0,0)" stroke="rgb(0,0,0)" stroke-width="1" opacity="0" d="M 0 0 L 1024 0 L 1024 1024 L 0 1024 L 0 0 Z M 455 319 L 439 322 L 424 327 Q 398 338 380 356 Q 353 381 336 415 L 323 449 L 319 467 L 317 488 L 316 489 L 316 518 L 317 519 L 318 534 L 323 557 L 328 572 Q 341 606 364 632 Q 387 659 420 676 Q 437 686 459 692 L 484 698 L 499 699 L 500 700 L 529 700 L 530 699 L 538 699 L 546 697 L 552 697 L 571 691 L 576 691 L 593 700 L 613 707 L 641 713 L 656 713 L 657 714 L 687 712 L 699 709 L 710 704 Q 718 696 724 686 Q 732 672 736 656 L 719 659 L 706 659 L 705 660 L 679 659 L 656 655 L 626 645 L 604 634 L 602 634 L 616 652 Q 637 676 668 691 L 663 692 L 634 691 L 613 687 L 594 681 Q 556 666 529 642 L 507 620 L 498 610 L 482 607 L 460 597 L 439 581 Q 423 565 413 544 L 409 532 L 406 516 L 406 491 L 409 475 Q 416 449 432 432 Q 446 414 469 404 L 491 397 L 505 396 L 506 395 L 518 395 L 519 396 L 527 396 L 538 398 Q 562 405 579 419 Q 594 432 604 450 L 614 473 L 618 494 L 618 514 Q 616 515 617 521 L 611 543 Q 603 565 587 580 L 591 587 Q 617 617 660 630 Q 683 606 697 573 L 708 537 L 709 525 L 710 524 L 710 515 L 711 514 L 710 478 L 703 445 Q 692 407 669 382 L 663 377 Q 673 392 679 412 L 685 436 L 686 449 L 687 450 L 687 462 L 688 463 L 687 493 L 684 506 L 680 476 L 673 452 Q 661 419 640 395 L 612 367 Q 592 352 568 342 L 529 328 L 510 323 L 493 320 L 486 320 L 485 319 L 455 319 Z " /><path fill="rgb(19,17,18)" stroke="rgb(19,17,18)" stroke-width="1" opacity="0.9921568627450981" d="M 454.5 319 L 484.5 319 L 485.5 320 L 492.5 320 L 509.5 323 L 528.5 328 L 567.5 342 Q 591.6 352.4 611.5 367 L 640 394.5 Q 660.8 418.7 673 451.5 L 680 475.5 L 683.5 506 L 687 492.5 L 688 462.5 L 687 461.5 L 687 449.5 L 686 448.5 L 685 435.5 L 679 411.5 L 672 393.5 L 662 375.5 L 669 381.5 Q 691.6 407.4 703 444.5 L 710 477.5 L 711 513.5 L 710 514.5 L 710 523.5 L 709 524.5 L 708 536.5 L 697 572.5 Q 683.2 606.2 659.5 630 Q 616.8 616.7 591 586.5 L 587 579.5 Q 602.6 564.6 611 542.5 L 617 520.5 Q 615.5 515 618 513.5 L 618 493.5 L 614 472.5 L 604 449.5 Q 593.7 431.8 578.5 419 Q 561.7 404.8 537.5 398 L 526.5 396 L 518.5 396 L 517.5 395 L 505.5 395 L 504.5 396 L 490.5 397 L 468.5 404 Q 446.4 413.9 432 431.5 Q 416.4 448.9 409 474.5 L 406 490.5 L 406 515.5 L 409 531.5 L 413 543.5 Q 422.5 565.5 438.5 581 L 459.5 597 L 481.5 607 L 497.5 610 L 507 619.5 L 528.5 642 Q 556.2 666.3 593.5 681 L 612.5 687 L 633.5 691 L 662.5 692 L 668 690.5 Q 637.3 675.7 616 651.5 L 602 633.5 L 603.5 634 L 625.5 645 L 655.5 655 L 678.5 659 L 704.5 660 L 705.5 659 L 718.5 659 L 736 656 Q 731.8 671.9 724 685.5 Q 718.4 696.4 709.5 704 L 698.5 709 L 686.5 712 L 656.5 714 L 655.5 713 L 640.5 713 L 612.5 707 L 592.5 700 L 575.5 691 L 570.5 691 L 551.5 697 L 545.5 697 L 537.5 699 L 529.5 699 L 528.5 700 L 499.5 700 L 498.5 699 L 483.5 698 L 458.5 692 Q 437.3 685.7 419.5 676 Q 386.9 658.6 364 631.5 Q 341.5 606 328 571.5 L 323 556.5 L 318 533.5 L 317 518.5 L 316 517.5 L 316 488.5 L 317 487.5 L 319 466.5 L 323 448.5 L 336 414.5 Q 353.1 380.6 379.5 356 Q 398.1 338.1 423.5 327 L 438.5 322 L 454.5 319 Z " /></svg>