<svg width="422" height="397" viewBox="0 0 422 397" fill="none" xmlns="http://www.w3.org/2000/svg">
<path opacity="0.992157" d="M139.5 1H169.5L170.5 2H177.5L194.5 5L213.5 10L252.5 24C268.567 30.9333 283.233 39.2667 296.5 49L325 76.5C338.867 92.6333 349.867 111.633 358 133.5L365 157.5L368.5 188L372 174.5L373 144.5L372 143.5V131.5L371 130.5L370 117.5L364 93.5L357 75.5L347 57.5L354 63.5C369.067 80.7667 380.4 101.767 388 126.5L395 159.5L396 195.5L395 196.5V205.5L394 206.5L393 218.5L382 254.5C372.8 276.967 360.3 296.133 344.5 312C316.033 303.133 293.2 288.633 276 268.5L272 261.5C282.4 251.567 290.4 239.233 296 224.5L302 202.5C301 198.833 301.333 196.5 303 195.5V175.5L299 154.5L289 131.5C282.133 119.7 273.633 109.533 263.5 101C252.3 91.5333 238.633 84.5333 222.5 80L211.5 78H203.5L202.5 77H190.5L189.5 78L175.5 79L153.5 86C138.767 92.6 126.6 101.767 117 113.5C106.6 125.1 98.9333 139.433 94 156.5L91 172.5V197.5L94 213.5L98 225.5C104.333 240.167 112.833 252.667 123.5 263L144.5 279L166.5 289L182.5 292L192 301.5L213.5 324C231.967 340.2 253.633 353.2 278.5 363L297.5 369L318.5 373L347.5 374L353 372.5C332.533 362.633 315.2 349.633 301 333.5L287 315.5L288.5 316L310.5 327L340.5 337L363.5 341L389.5 342L390.5 341H403.5L421 338C418.2 348.6 414.2 358.433 409 367.5C405.267 374.767 400.433 380.933 394.5 386L383.5 391L371.5 394L341.5 396L340.5 395H325.5L297.5 389L277.5 382L260.5 373H255.5L236.5 379H230.5L222.5 381H214.5L213.5 382H184.5L183.5 381L168.5 380L143.5 374C129.367 369.8 116.367 364.467 104.5 358C82.7667 346.4 64.2667 331.567 49 313.5C34 296.5 22 276.5 13 253.5L8 238.5L3 215.5L2 200.5L1 199.5V170.5L2 169.5L4 148.5L8 130.5L21 96.5C32.4 73.9 46.9 54.4 64.5 38C76.9 26.0667 91.5667 16.4 108.5 9L123.5 4L139.5 1Z" fill="white" stroke="white"/>
</svg>
